<?xml version="1.0" encoding="UTF-8"?><svg id="a" xmlns="http://www.w3.org/2000/svg" viewBox="246 402.62 508 194.76"><defs><style>.b{opacity:.2;}.c{fill:#a7ad8b;}.d{fill:#999;}.e{fill:#cabea8;}</style></defs><g><g><path class="c" d="M486.37,523.25v-83.16h-29.54v-7.51h67.36v7.51h-29.53v83.16h-8.29Z"/><path class="c" d="M560.34,524.81c-5.1,0-9.57-.54-13.41-1.62-3.84-1.08-7.15-2.57-9.91-4.47-2.77-1.9-5.03-4.02-6.8-6.35-1.77-2.33-3.13-4.79-4.08-7.38l7.77-2.98c1.47,4.06,4.36,7.62,8.68,10.69,4.32,3.07,9.59,4.6,15.8,4.6,7.94,0,14.12-1.53,18.52-4.6,4.4-3.06,6.61-7.1,6.61-12.11s-2.03-8.7-6.09-11.59c-4.06-2.89-9.33-5.16-15.8-6.8l-9.2-2.33c-3.97-1.04-7.66-2.53-11.08-4.47-3.41-1.94-6.15-4.42-8.23-7.45-2.07-3.02-3.11-6.74-3.11-11.14,0-8.12,2.59-14.44,7.77-18.98,5.18-4.53,12.74-6.8,22.67-6.8,5.96,0,11.1,1.02,15.42,3.04,4.32,2.03,7.79,4.53,10.43,7.51,2.63,2.98,4.38,5.98,5.25,9l-7.64,2.98c-1.9-4.75-4.99-8.44-9.26-11.08-4.27-2.63-9.44-3.95-15.48-3.95-6.39,0-11.46,1.55-15.22,4.66s-5.64,7.3-5.64,12.57c0,4.75,1.47,8.31,4.4,10.69,2.93,2.38,6.78,4.17,11.53,5.38l9.2,2.2c9.15,2.16,16.17,5.59,21.05,10.3,4.88,4.71,7.32,9.74,7.32,15.09,0,4.58-1.17,8.79-3.5,12.63-2.33,3.84-5.83,6.93-10.49,9.26s-10.49,3.5-17.49,3.5Z"/><path class="c" d="M605.42,523.25v-90.68h27.85c5.7,0,10.75,1.15,15.16,3.43,4.4,2.29,7.84,5.44,10.3,9.46s3.69,8.66,3.69,13.93c0,5.96-1.77,11.14-5.31,15.55-3.54,4.4-8.12,7.56-13.73,9.46l22.67,38.86h-9.07l-21.76-37.18c-.61,.09-1.21,.13-1.81,.13h-19.69v37.05h-8.29Zm8.29-44.69h21.76c3.45,0,6.58-.82,9.39-2.46,2.81-1.64,5.07-3.91,6.8-6.8,1.73-2.89,2.59-6.2,2.59-9.91,0-5.7-1.97-10.34-5.89-13.93-3.93-3.58-8.96-5.38-15.09-5.38h-19.56v38.47Z"/><path class="c" d="M716.43,524.81c-8.55,0-16.13-2.01-22.73-6.02-6.61-4.02-11.79-9.54-15.55-16.58-3.76-7.04-5.63-15.13-5.63-24.29s1.86-17.25,5.57-24.29c3.71-7.04,8.85-12.56,15.42-16.58,6.56-4.02,14.08-6.02,22.54-6.02,5.09,0,10.08,.93,14.96,2.79,4.88,1.86,9.3,4.45,13.28,7.77,3.97,3.33,7.04,7.15,9.2,11.46l-6.87,4.27c-1.81-3.71-4.34-6.97-7.58-9.78-3.24-2.8-6.85-5.01-10.82-6.61-3.97-1.6-8.03-2.4-12.18-2.4-6.82,0-12.89,1.68-18.2,5.05-5.31,3.37-9.48,8.01-12.5,13.93-3.02,5.92-4.53,12.72-4.53,20.4s1.51,14.64,4.53,20.6c3.02,5.96,7.23,10.62,12.63,13.99,5.4,3.37,11.55,5.05,18.46,5.05,4.23,0,8.33-.88,12.31-2.66,3.97-1.77,7.58-4.21,10.82-7.32,3.24-3.11,5.76-6.65,7.58-10.62l6.86,4.27c-2.25,4.58-5.33,8.66-9.26,12.24-3.93,3.58-8.35,6.37-13.28,8.35s-9.93,2.98-15.03,2.98Z"/></g><g><path class="d" d="M457.82,568.67v-17.87h2.5v7.53h9.62v-7.53h2.5v17.87h-2.5v-8.04h-9.62v8.04h-2.5Z"/><path class="d" d="M479.54,568.67v-17.87h10.75v2.3h-8.25v5.31h7.43v2.25h-7.43v5.72h8.3v2.3h-10.8Z"/><path class="d" d="M495.14,568.67l7.2-17.87h2.68l7.2,17.87h-2.68l-1.91-4.77h-7.89l-1.91,4.77h-2.68Zm5.46-7.02h6.15l-3.06-7.68-3.09,7.68Z"/><path class="d" d="M517.28,568.67v-17.87h2.5v15.57h8.3v2.3h-10.8Z"/><path class="d" d="M534.81,568.67v-15.57h-5.59v-2.3h13.71v2.3h-5.59v15.57h-2.53Z"/><path class="d" d="M548.06,568.67v-17.87h2.5v7.53h9.62v-7.53h2.5v17.87h-2.5v-8.04h-9.62v8.04h-2.5Z"/><path class="d" d="M586.18,568.98c-1.7,0-3.22-.4-4.54-1.19-1.33-.79-2.37-1.88-3.11-3.27-.75-1.39-1.12-2.98-1.12-4.79s.37-3.4,1.12-4.79c.75-1.39,1.78-2.48,3.09-3.27,1.31-.79,2.82-1.19,4.52-1.19,1.11,0,2.16,.2,3.17,.6,1,.4,1.9,.95,2.69,1.66,.79,.71,1.4,1.53,1.83,2.46l-2.25,1.02c-.32-.7-.77-1.3-1.33-1.81-.56-.51-1.2-.91-1.9-1.2-.71-.29-1.44-.43-2.21-.43-1.19,0-2.26,.3-3.19,.89-.94,.6-1.67,1.41-2.2,2.45-.53,1.04-.79,2.24-.79,3.6s.27,2.57,.8,3.63c.54,1.06,1.28,1.88,2.22,2.46s2.02,.88,3.23,.88c.78,0,1.52-.16,2.22-.47,.7-.31,1.32-.75,1.88-1.3s1-1.19,1.34-1.9l2.25,1c-.43,.97-1.03,1.83-1.81,2.58-.78,.75-1.68,1.33-2.69,1.75-1.01,.42-2.08,.63-3.2,.63Z"/><path class="d" d="M607.29,568.98c-1.74,0-3.28-.39-4.62-1.17-1.35-.78-2.4-1.87-3.15-3.27-.76-1.4-1.14-3-1.14-4.8s.38-3.4,1.14-4.79c.76-1.39,1.8-2.48,3.13-3.27s2.86-1.19,4.6-1.19,3.27,.4,4.6,1.19,2.37,1.88,3.11,3.27c.75,1.39,1.12,2.98,1.12,4.79s-.37,3.4-1.12,4.8c-.75,1.4-1.78,2.49-3.1,3.27-1.32,.78-2.84,1.17-4.56,1.17Zm0-2.3c1.23,0,2.31-.3,3.24-.89,.94-.6,1.67-1.41,2.2-2.45,.53-1.04,.79-2.24,.79-3.6s-.27-2.54-.8-3.59-1.28-1.87-2.22-2.46-2.03-.89-3.26-.89-2.31,.3-3.27,.89-1.7,1.42-2.23,2.46c-.54,1.05-.8,2.24-.8,3.59s.27,2.56,.82,3.6c.54,1.04,1.3,1.85,2.26,2.45s2.06,.89,3.28,.89Z"/><path class="d" d="M622,568.67v-17.87h2.5v15.57h8.3v2.3h-10.8Z"/><path class="d" d="M637.93,568.67v-17.87h2.5v15.57h8.3v2.3h-10.8Z"/><path class="d" d="M653.86,568.67v-17.87h10.75v2.3h-8.25v5.31h7.43v2.25h-7.43v5.72h8.3v2.3h-10.8Z"/><path class="d" d="M679.11,568.98c-1.7,0-3.22-.4-4.54-1.19-1.33-.79-2.37-1.88-3.11-3.27-.75-1.39-1.12-2.98-1.12-4.79s.37-3.4,1.12-4.79c.75-1.39,1.78-2.48,3.09-3.27,1.31-.79,2.82-1.19,4.52-1.19,1.11,0,2.16,.2,3.17,.6,1,.4,1.9,.95,2.69,1.66,.79,.71,1.4,1.53,1.83,2.46l-2.25,1.02c-.32-.7-.77-1.3-1.33-1.81-.56-.51-1.2-.91-1.9-1.2-.71-.29-1.44-.43-2.21-.43-1.19,0-2.26,.3-3.19,.89-.94,.6-1.67,1.41-2.2,2.45-.53,1.04-.79,2.24-.79,3.6s.27,2.57,.8,3.63c.54,1.06,1.28,1.88,2.22,2.46s2.02,.88,3.23,.88c.78,0,1.52-.16,2.22-.47,.7-.31,1.32-.75,1.88-1.3s1-1.19,1.34-1.9l2.25,1c-.43,.97-1.03,1.83-1.81,2.58-.78,.75-1.68,1.33-2.69,1.75-1.01,.42-2.08,.63-3.2,.63Z"/><path class="d" d="M696.11,568.67v-15.57h-5.59v-2.3h13.71v2.3h-5.59v15.57h-2.53Z"/><path class="d" d="M709.36,568.67v-17.87h2.5v17.87h-2.5Z"/><path class="d" d="M724.24,568.67l-7.33-17.87h2.68l6.03,14.96,6.05-14.96h2.68l-7.33,17.87h-2.78Z"/><path class="d" d="M739.41,568.67v-17.87h10.75v2.3h-8.25v5.31h7.43v2.25h-7.43v5.72h8.3v2.3h-10.8Z"/></g></g><g><g class="b"><circle class="e" cx="343.38" cy="500" r="97.38"/></g><g><g><path class="e" d="M411.55,487.41c3.37,6.2,5.43,12.8,6.19,19.71,1.12,10.24,.47,20.26-4.48,29.67-6.61,12.57-17.36,20.36-29.88,26.01-11.31,5.1-23.14,6.29-35.28,3.51-3.78-.87-4.03-1.32-2.77-4.98,4.41-12.77,12.34-22.29,25.27-27.16,1.76-.66,3.48-1.41,5.2-2.15,9.7-4.16,12.63-7.58,15.11-17.85,2.92,5.05,2.93,9.99,1.23,15.09-1.64,4.93-5.24,8.53-8.34,12.51,10.24-4.87,18.21-12.13,23.33-22.29,5.11-10.13,5.75-20.92,4.41-32.08Z"/><path class="e" d="M302.89,541.84c-10.1-13.61-11.91-20.79-6.53-27.88-.05,10.12,6.89,14.47,14.6,18.09,4.09,1.92,8.53,3.07,12.4,5.49,9.22,5.76,14.94,14.16,18.39,24.31,.89,2.61,.13,3.81-2.54,4.41-14.81,3.36-28.74,1.03-41.83-6.45-8.6-4.91-16.45-10.81-21.77-19.39-7.73-12.48-8.48-25.97-5.23-39.91,1.06-4.56,2.42-9.06,4.91-13.29-3.23,24.68,5.66,43.03,27.6,54.62Z"/></g><g><path class="c" d="M309.21,481.67c.2,.17,.48,.33,.67,.57,8.09,10.38,16.2,20.75,24.24,31.17,3.58,4.63,5.42,9.98,5.99,15.78,.24,2.38,.14,2.48-2.22,2.09-13.77-2.25-23.52-9.79-28.93-22.61-3.6-8.52-3.67-17.28-.45-26.01,.1-.27,.22-.52,.35-.77,.04-.07,.15-.1,.35-.21Z"/><path class="c" d="M378.03,481.62c.53,1.68,1.17,3.34,1.58,5.06,3.55,15.15-2.73,30.68-15.81,39.14-4.74,3.07-9.95,4.87-15.55,5.62-1.14,.15-1.56-.18-1.5-1.35,.34-6.2,2.29-11.83,6.07-16.74,8.02-10.42,16.14-20.77,24.22-31.14,.14-.18,.31-.34,.47-.5l.53-.08Z"/><path class="c" d="M346.72,507.83c0-.97,0-1.62,0-2.27,0-5.18,.13-10.37-.02-15.55-.2-6.44,1.76-12,5.93-16.91,3.51-4.13,6.83-8.41,10.18-12.66,.76-.97,1.26-.97,1.89,.05,1.79,2.9,3.97,5.62,5.33,8.71,1.77,4.04,1.21,8.28-1.5,11.76-6.92,8.89-14.06,17.6-21.12,26.38-.08,.1-.22,.16-.69,.49Z"/><path class="c" d="M323.15,459.35c2.2,2.73,4.32,5.28,6.36,7.89,2.63,3.37,5.34,6.68,7.74,10.21,1.98,2.92,2.83,6.35,2.89,9.87,.11,6.46,.04,12.93,.04,19.4,0,.27-.07,.54-.16,1.13-.52-.54-.88-.87-1.18-1.24-6.55-8.14-13.1-16.29-19.65-24.44-4.15-5.17-4.3-11.25-.44-16.72,1.12-1.59,2.22-3.2,3.34-4.79,.29-.41,.63-.79,1.05-1.31Z"/><path class="c" d="M355.33,453.5c.09,3.26-.96,6.11-2.97,8.59-2.63,3.25-5.34,6.43-7.97,9.68-.7,.86-1.19,.85-1.88,0-2.69-3.32-5.48-6.56-8.14-9.91-3.72-4.67-3.88-11.39-.27-16.17,2.49-3.29,5.21-6.42,7.86-9.58,.97-1.16,1.96-1.22,2.88-.11,2.78,3.31,5.55,6.63,8.19,10.05,1.67,2.16,2.36,4.74,2.3,7.46Z"/></g><path class="e" d="M382.8,439.12c-3.51,1.14-5.79,3.42-6.91,6.9-1.13-3.49-3.4-5.77-6.9-6.9,3.48-1.14,5.77-3.41,6.9-6.91,1.12,3.48,3.4,5.78,6.91,6.91Z"/><path class="e" d="M386.52,450.88c-3.09,1-5.09,3.01-6.09,6.07-.99-3.07-2.99-5.07-6.07-6.07,3.07-1,5.08-3,6.07-6.08,.99,3.07,2.99,5.09,6.08,6.08Z"/><path class="e" d="M372.98,446.89c-2.08,.67-3.43,2.03-4.1,4.09-.67-2.07-2.01-3.42-4.09-4.08,2.06-.67,3.42-2.02,4.09-4.09,.66,2.06,2.01,3.42,4.09,4.09Z"/></g></g></svg>