<?xml version="1.0" encoding="UTF-8"?>
<svg
  xmlns="http://www.w3.org/2000/svg"
  viewBox="246 402.62 194.76 194.76"
  role="img"
  aria-label="TSRC Health Collective mark"
>
  <defs>
    <style>
      .b{opacity:.2;}
      .c{fill:#a7ad8b;}
      .e{fill:#cabea8;}
    </style>
  </defs>
  <g>
    <g class="b">
      <circle class="e" cx="343.38" cy="500" r="97.38"/>
    </g>
    <g>
      <g>
        <path class="e" d="M411.55,487.41c3.37,6.2,5.43,12.8,6.19,19.71,1.12,10.24,.47,20.26-4.48,29.67-6.61,12.57-17.36,20.36-29.88,26.01-11.31,5.1-23.14,6.29-35.28,3.51-3.78-.87-4.03-1.32-2.77-4.98,4.41-12.77,12.34-22.29,25.27-27.16,1.76-.66,3.48-1.41,5.2-2.15,9.7-4.16,12.63-7.58,15.11-17.85,2.92,5.05,2.93,9.99,1.23,15.09-1.64,4.93-5.24,8.53-8.34,12.51,10.24-4.87,18.21-12.13,23.33-22.29,5.11-10.13,5.75-20.92,4.41-32.08Z"/>
        <path class="e" d="M302.89,541.84c-10.1-13.61-11.91-20.79-6.53-27.88-.05,10.12,6.89,14.47,14.6,18.09,4.09,1.92,8.53,3.07,12.4,5.49,9.22,5.76,14.94,14.16,18.39,24.31,.89,2.61,.13,3.81-2.54,4.41-14.81,3.36-28.74,1.03-41.83-6.45-8.6-4.91-16.45-10.81-21.77-19.39-7.73-12.48-8.48-25.97-5.23-39.91,1.06-4.56,2.42-9.06,4.91-13.29-3.23,24.68,5.66,43.03,27.6,54.62Z"/>
      </g>
      <g>
        <path class="c" d="M309.21,481.67c.2,.17,.48,.33,.67,.57,8.09,10.38,16.2,20.75,24.24,31.17,3.58,4.63,5.42,9.98,5.99,15.78,.24,2.38,.14,2.48-2.22,2.09-13.77-2.25-23.52-9.79-28.93-22.61-3.6-8.52-3.67-17.28-.45-26.01,.1-.27,.22-.52,.35-.77,.04-.07,.15-.1,.35-.21Z"/>
        <path class="c" d="M378.03,481.62c.53,1.68,1.17,3.34,1.58,5.06,3.55,15.15-2.73,30.68-15.81,39.14-4.74,3.07-9.95,4.87-15.55,5.62-1.14,.15-1.56-.18-1.5-1.35,.34-6.2,2.29-11.83,6.07-16.74,8.02-10.42,16.14-20.77,24.22-31.14,.14-.18,.31-.34,.47-.5l.53-.08Z"/>
        <path class="c" d="M346.72,507.83c0-.97,0-1.62,0-2.27,0-5.18,.13-10.37-.02-15.55-.2-6.44,1.76-12,5.93-16.91,3.51-4.13,6.83-8.41,10.18-12.66,.76-.97,1.26-.97,1.89,.05,1.79,2.9,3.97,5.62,5.33,8.71,1.77,4.04,1.21,8.28-1.5,11.76-6.92,8.89-14.06,17.6-21.12,26.38-.08,.1-.22,.16-.69,.49Z"/>
        <path class="c" d="M323.15,459.35c2.2,2.73,4.32,5.28,6.36,7.89,2.63,3.37,5.34,6.68,7.74,10.21,1.98,2.92,2.83,6.35,2.89,9.87,.11,6.46,.04,12.93,.04,19.4,0,.27-.07,.54-.16,1.13-.52-.54-.88-.87-1.18-1.24-6.55-8.14-13.1-16.29-19.65-24.44-4.15-5.17-4.3-11.25-.44-16.72,1.12-1.59,2.22-3.2,3.34-4.79,.29-.41,.63-.79,1.05-1.31Z"/>
        <path class="c" d="M355.33,453.5c.09,3.26-.96,6.11-2.97,8.59-2.63,3.25-5.34,6.43-7.97,9.68-.7,.86-1.19,.85-1.88,0-2.69-3.32-5.48-6.56-8.14-9.91-3.72-4.67-3.88-11.39-.27-16.17,2.49-3.29,5.21-6.42,7.86-9.58,.97-1.16,1.96-1.22,2.88-.11,2.78,3.31,5.55,6.63,8.19,10.05,1.67,2.16,2.36,4.74,2.3,7.46Z"/>
      </g>
      <path class="e" d="M382.8,439.12c-3.51,1.14-5.79,3.42-6.91,6.9-1.13-3.49-3.4-5.77-6.9-6.9,3.48-1.14,5.77-3.41,6.9-6.91,1.12,3.48,3.4,5.78,6.91,6.91Z"/>
      <path class="e" d="M386.52,450.88c-3.09,1-5.09,3.01-6.09,6.07-.99-3.07-2.99-5.07-6.07-6.07,3.07-1,5.08-3,6.07-6.08,.99,3.07,2.99,5.09,6.08,6.08Z"/>
      <path class="e" d="M372.98,446.89c-2.08,.67-3.43,2.03-4.1,4.09-.67-2.07-2.01-3.42-4.09-4.08,2.06-.67,3.42-2.02,4.09-4.09,.66,2.06,2.01,3.42,4.09,4.09Z"/>
    </g>
  </g>
</svg>
